Coordinates
version=1
nRows=27
nColumns=21
inDegrees=yes

Units are S.I. units (second, meters, Newtons, ...)
If the header above contains a line with 'inDegrees', this indicates whether rotational values are in degrees (yes) or radians (no).

endheader
time	sternoclavicular_r2	sternoclavicular_r3	unrotscap_r3	unrotscap_r2	acromioclavicular_r2	acromioclavicular_r3	acromioclavicular_r1	unrothum_r1	unrothum_r3	unrothum_r2	elv_angle	shoulder_elev	shoulder1_r2	shoulder_rot	elbow_flexion	pro_sup	deviation	flexion	wrist_hand_r1	wrist_hand_r3
      0.00000000	     -0.00048191	      0.00020412	     -0.00020412	      0.00048191	     -0.00009758	      0.00078859	      0.00035446	     -0.00035446	     -0.00078859	      0.00009758	     60.14277612	      0.00199137	    -60.14277612	    -14.02953329	    125.80075253	      0.00000000	      0.00000000	     -0.00000000	     -0.00000000	      0.00000000
      0.10101010	     -0.00048216	      0.00020422	     -0.00020422	      0.00048216	     -0.00009763	      0.00078900	      0.00035465	     -0.00035465	     -0.00078900	      0.00009763	     59.93520758	      0.00199241	    -59.93520758	    -14.02925667	    125.79970583	      0.00000000	      0.00000000	     -0.00000000	     -0.00000000	      0.00000000
      0.20202020	     -0.00048241	      0.00020432	     -0.00020432	      0.00048241	     -0.00009768	      0.00078940	      0.00035483	     -0.00035483	     -0.00078940	      0.00009768	     59.72322113	      0.00199341	    -59.72322113	    -14.02935682	    125.79767556	      0.00000000	      0.00000000	     -0.00000000	     -0.00000000	      0.00000000
      0.30303030	     -0.00048258	      0.00020440	     -0.00020440	      0.00048258	     -0.00009771	      0.00078968	      0.00035496	     -0.00035496	     -0.00078968	      0.00009771	     59.50650951	      0.00199413	    -59.50650951	    -14.02955100	    125.78834650	      0.00000000	      0.00000000	     -0.00000000	     -0.00000000	      0.00000000
      0.40404040	     -0.00048260	      0.00020441	     -0.00020441	      0.00048260	     -0.00009772	      0.00078971	      0.00035497	     -0.00035497	     -0.00078971	      0.00009772	     59.28449905	      0.00199421	    -59.28449905	    -14.02962363	    125.76411963	      0.00000000	      0.00000000	     -0.00000000	     -0.00000000	      0.00000000
      0.50505051	     -0.00048238	      0.00020431	     -0.00020431	      0.00048238	     -0.00009767	      0.00078935	      0.00035481	     -0.00035481	     -0.00078935	      0.00009767	     59.05627934	      0.00199330	    -59.05627934	    -14.02925757	    125.71761142	      0.00000000	      0.00000000	     -0.00000000	     -0.00000000	      0.00000000
      0.60606061	     -0.00048184	      0.00020409	     -0.00020409	      0.00048184	     -0.00009756	      0.00078847	      0.00035441	     -0.00035441	     -0.00078847	      0.00009756	     58.82043055	      0.00199107	    -58.82043055	    -14.02811353	    125.64172973	      0.00000000	      0.00000000	     -0.00000000	     -0.00000000	      0.00000000
      0.70707071	     -0.00048092	      0.00020369	     -0.00020369	      0.00048092	     -0.00009738	      0.00078696	      0.00035373	     -0.00035373	     -0.00078696	      0.00009738	     58.57487791	      0.00198726	    -58.57487791	    -14.02584205	    125.52958882	      0.00000000	      0.00000000	     -0.00000000	     -0.00000000	      0.00000000
      0.80808081	     -0.00047955	      0.00020311	     -0.00020311	      0.00047955	     -0.00009710	      0.00078472	      0.00035273	     -0.00035273	     -0.00078472	      0.00009710	     58.31681080	      0.00198161	    -58.31681080	    -14.02211926	    125.37456578	      0.00000000	      0.00000000	     -0.00000000	     -0.00000000	      0.00000000
      0.90909091	     -0.00047845	      0.00020265	     -0.00020265	      0.00047845	     -0.00009688	      0.00078293	      0.00035192	     -0.00035192	     -0.00078293	      0.00009688	     58.01415941	      0.00197708	    -58.01415941	    -14.01088235	    125.15670232	      0.00000000	      0.00000000	     -0.00000000	     -0.00000000	      0.00000000
      1.01010101	     -0.00047621	      0.00020170	     -0.00020170	      0.00047621	     -0.00009642	      0.00077925	      0.00035027	     -0.00035027	     -0.00077925	      0.00009642	     57.67877561	      0.00196779	    -57.67877561	    -14.00186815	    124.89546252	      0.00000000	      0.00000000	     -0.00000000	     -0.00000000	      0.00000000
      1.11111111	     -0.00047347	      0.00020054	     -0.00020054	      0.00047347	     -0.00009587	      0.00077478	      0.00034826	     -0.00034826	     -0.00077478	      0.00009587	     57.30141150	      0.00195650	    -57.30141150	    -13.99078713	    124.57514399	      0.00000000	      0.00000000	     -0.00000000	     -0.00000000	      0.00000000
      1.21212121	     -0.00047026	      0.00019918	     -0.00019918	      0.00047026	     -0.00009522	      0.00076952	      0.00034590	     -0.00034590	     -0.00076952	      0.00009522	     56.87848872	      0.00194323	    -56.87848872	    -13.97746510	    124.19071809	      0.00000000	      0.00000000	     -0.00000000	     -0.00000000	      0.00000000
      1.31313131	     -0.00046659	      0.00019762	     -0.00019762	      0.00046659	     -0.00009447	      0.00076351	      0.00034319	     -0.00034319	     -0.00076351	      0.00009447	     56.40639443	      0.00192804	    -56.40639443	    -13.96165410	    123.73731260	      0.00000000	      0.00000000	     -0.00000000	     -0.00000000	      0.00000000
      1.41414141	     -0.00046247	      0.00019588	     -0.00019588	      0.00046247	     -0.00009364	      0.00075678	      0.00034017	     -0.00034017	     -0.00075678	      0.00009364	     55.88168102	      0.00191104	    -55.88168102	    -13.94302174	    123.21014466	      0.00000000	      0.00000000	     -0.00000000	     -0.00000000	      0.00000000
      1.51515152	     -0.00045796	      0.00019397	     -0.00019397	      0.00045796	     -0.00009273	      0.00074940	      0.00033685	     -0.00033685	     -0.00074940	      0.00009273	     55.30101475	      0.00189241	    -55.30101475	    -13.92109497	    122.60444039	      0.00000000	      0.00000000	     -0.00000000	     -0.00000000	      0.00000000
      1.61616162	     -0.00045312	      0.00019192	     -0.00019192	      0.00045312	     -0.00009175	      0.00074146	      0.00033328	     -0.00033328	     -0.00074146	      0.00009175	     54.66110767	      0.00187237	    -54.66110767	    -13.89524278	    121.91538793	      0.00000000	      0.00000000	     -0.00000000	     -0.00000000	      0.00000000
      1.71717172	     -0.00044800	      0.00018975	     -0.00018975	      0.00044800	     -0.00009071	      0.00073309	      0.00032952	     -0.00032952	     -0.00073309	      0.00009071	     53.95872964	      0.00185124	    -53.95872964	    -13.86476827	    121.13821379	      0.00000000	      0.00000000	     -0.00000000	     -0.00000000	      0.00000000
      1.81818182	     -0.00044259	      0.00018746	     -0.00018746	      0.00044259	     -0.00008962	      0.00072425	      0.00032554	     -0.00032554	     -0.00072425	      0.00008962	     53.22699305	      0.00182890	    -53.22699305	    -13.82668029	    120.26437630	      0.00000000	      0.00000000	     -0.00000000	     -0.00000000	      0.00000000
      1.91919192	     -0.00043711	      0.00018514	     -0.00018514	      0.00043711	     -0.00008851	      0.00071528	      0.00032151	     -0.00032151	     -0.00071528	      0.00008851	     52.42274691	      0.00180624	    -52.42274691	    -13.78463250	    119.29698381	      0.00000000	      0.00000000	     -0.00000000	     -0.00000000	      0.00000000
      2.02020202	     -0.00043166	      0.00018283	     -0.00018283	      0.00043166	     -0.00008740	      0.00070636	      0.00031750	     -0.00031750	     -0.00070636	      0.00008740	     51.54067379	      0.00178372	    -51.54067379	    -13.73626096	    118.22878114	      0.00000000	      0.00000000	     -0.00000000	     -0.00000000	      0.00000000
      2.12121212	     -0.00042636	      0.00018059	     -0.00018059	      0.00042636	     -0.00008633	      0.00069768	      0.00031360	     -0.00031360	     -0.00069768	      0.00008633	     50.57750955	      0.00176181	    -50.57750955	    -13.68084779	    117.05586454	      0.00000000	      0.00000000	     -0.00000000	     -0.00000000	      0.00000000
      2.22222222	     -0.00042112	      0.00017837	     -0.00017837	      0.00042112	     -0.00008527	      0.00068910	      0.00030975	     -0.00030975	     -0.00068910	      0.00008527	     49.55648515	      0.00174015	    -49.55648515	    -13.61720169	    115.77504839	      0.00000000	      0.00000000	     -0.00000000	     -0.00000000	      0.00000000
      2.32323232	     -0.00041637	      0.00017636	     -0.00017636	      0.00041637	     -0.00008431	      0.00068134	      0.00030626	     -0.00030626	     -0.00068134	      0.00008431	     48.44317108	      0.00172054	    -48.44317108	    -13.54549575	    114.38268261	      0.00000000	      0.00000000	     -0.00000000	     -0.00000000	      0.00000000
      2.42424242	     -0.00041215	      0.00017457	     -0.00017457	      0.00041215	     -0.00008345	      0.00067443	      0.00030315	     -0.00030315	     -0.00067443	      0.00008345	     47.23833407	      0.00170311	    -47.23833407	    -13.46421081	    112.87738062	      0.00000000	      0.00000000	     -0.00000000	     -0.00000000	      0.00000000
      2.52525253	     -0.00040820	      0.00017290	     -0.00017290	      0.00040820	     -0.00008265	      0.00066797	      0.00030025	     -0.00030025	     -0.00066797	      0.00008265	     45.94473182	      0.00168679	    -45.94473182	    -13.37251203	    111.25751767	      0.00000000	      0.00000000	     -0.00000000	     -0.00000000	      0.00000000
      2.62626263	     -0.00040835	      0.00017296	     -0.00017296	      0.00040835	     -0.00008268	      0.00066822	      0.00030036	     -0.00030036	     -0.00066822	      0.00008268	     44.32492898	      0.00168741	    -44.32492898	    -13.26955101	    109.52132231	      0.00000000	      0.00000000	     -0.00000000	     -0.00000000	      0.00000000
